<svg width="680" height="240" viewBox="0 0 680 240" xmlns="http://www.w3.org/2000/svg">
  <defs>
    <clipPath id="egg-clip-r4">
      <ellipse cx="110" cy="120" rx="72" ry="90"/>
    </clipPath>
  </defs>

  <ellipse cx="110" cy="120" rx="72" ry="90" fill="#E8593C"/>
  <ellipse cx="110" cy="134" rx="72" ry="74" fill="#D14520"/>

  <ellipse cx="108" cy="148" rx="32" ry="27" fill="#fff" clip-path="url(#egg-clip-r4)"/>
  <rect x="115" y="112" width="18" height="30" rx="8" fill="#fff" clip-path="url(#egg-clip-r4)"/>
  <circle cx="130" cy="104" r="18" fill="#fff" clip-path="url(#egg-clip-r4)"/>
  <path d="M122 92 Q124 78 127 88 Q129 74 132 86 Q134 72 137 84 Q139 78 141 90" fill="#B03010" clip-path="url(#egg-clip-r4)"/>
  <ellipse cx="138" cy="112" rx="6" ry="9" fill="#B03010" clip-path="url(#egg-clip-r4)"/>
  <ellipse cx="144" cy="114" rx="5" ry="7" fill="#B03010" clip-path="url(#egg-clip-r4)"/>
  <polygon points="146,101 160,105 146,109" fill="#BA7517" clip-path="url(#egg-clip-r4)"/>
  <circle cx="134" cy="100" r="4" fill="#2A1208" clip-path="url(#egg-clip-r4)"/>
  <circle cx="135" cy="99" r="1.4" fill="#fff" clip-path="url(#egg-clip-r4)"/>
  <ellipse cx="96" cy="146" rx="20" ry="15" fill="#D14520" clip-path="url(#egg-clip-r4)"/>
  <path d="M78 136 Q58 116 64 138" fill="none" stroke="#fff" stroke-width="3" stroke-linecap="round" clip-path="url(#egg-clip-r4)"/>
  <path d="M78 144 Q56 132 62 154" fill="none" stroke="#fff" stroke-width="3" stroke-linecap="round" clip-path="url(#egg-clip-r4)"/>
  <path d="M78 152 Q58 150 64 166" fill="none" stroke="#fff" stroke-width="2.5" stroke-linecap="round" clip-path="url(#egg-clip-r4)"/>
  <path d="M100 175 L96 190 M96 190 L90 198 M96 190 L99 199 M96 190 L102 197" stroke="#BA7517" stroke-width="2.5" stroke-linecap="round" fill="none" clip-path="url(#egg-clip-r4)"/>
  <path d="M118 175 L122 190 M122 190 L127 198 M122 190 L119 199 M122 190 L126 197" stroke="#BA7517" stroke-width="2.5" stroke-linecap="round" fill="none" clip-path="url(#egg-clip-r4)"/>

  <ellipse cx="110" cy="120" rx="72" ry="90" fill="none" stroke="#B03010" stroke-width="2.5"/>

  <text x="224" y="108" font-family="Georgia, serif" font-size="58" font-weight="700" fill="#E8593C" letter-spacing="-1">MTK</text>
  <text x="226" y="138" font-family="Georgia, serif" font-size="18" fill="#BA7517" letter-spacing="6" font-weight="500">FARM</text>
  <text x="226" y="162" font-family="Georgia, serif" font-size="12" fill="#888780" letter-spacing="3">EST. CYPRESS, TX</text>
</svg>
